<svg t="1757259754455" class="icon" viewBox="0 0 1024 1024" version="1.1" xmlns="http://www.w3.org/2000/svg" p-id="26905" width="128" height="128"><path d="M855.552 761.344c-45.568-38.4-205.312-81.408-205.312-81.408 52.224 158.72-79.36 292.352-79.36 292.352l-30.72-209.92 13.824-10.24-13.824-24.064H499.2l-13.824 24.064 13.824 10.24-20.48 212.992c-133.632-86.016-106.496-295.936-106.496-295.936-58.88 3.584-166.912 36.352-224.256 96.256s-40.96 216.576-40.96 216.576h808.448c13.824-57.344-17.92-209.408-59.904-230.912z" fill="#d4237a" p-id="26906"></path><path d="M761.344 233.984c-19.456-97.28-154.112-132.608-183.808-144.896-14.848-11.264-17.92-21.504-22.528-56.832-1.024-1.024-21.504 52.224-25.088 52.224-2.048 0 14.848-54.272 12.288-53.248-3.584 1.024-32.768 55.808-37.376 57.856-2.048 1.024 19.456-51.2 16.896-49.664-45.568 20.48-120.32 72.704-120.32 72.704l14.848-59.904c-51.2 22.528-162.304 137.216-162.304 263.168 0 100.864 26.112 129.024 36.352 136.192l20.48 29.696c16.896 122.368 100.864 210.944 199.68 210.944 99.84 0 185.856-91.648 199.68-214.528v-2.048l14.848-14.848c-1.024-2.048 54.784-129.024 36.352-226.816z m-69.12 192c1.024 3.584 1.024 6.656 0 10.24v3.584c0 126.976-81.408 230.4-182.784 230.4s-182.784-103.424-182.784-230.4V404.48c13.824-22.528 28.16-52.224 39.936-86.016 121.344 35.328 196.096 36.352 274.432-4.608 8.192 26.112 29.696 64.512 48.64 96.256l2.56 15.872z" fill="#d4237a" p-id="26907"></path></svg>